<?xml version="1.0" encoding="UTF-8" standalone="no"?><!DOCTYPE svg PUBLIC "-//W3C//DTD SVG 1.1//EN" "http://www.w3.org/Graphics/SVG/1.1/DTD/svg11.dtd"><svg width="100%" height="100%" viewBox="0 0 884 454" version="1.1" xmlns="http://www.w3.org/2000/svg" xmlns:xlink="http://www.w3.org/1999/xlink" xml:space="preserve" xmlns:serif="http://www.serif.com/" style="fill-rule:evenodd;clip-rule:evenodd;stroke-linecap:round;stroke-linejoin:round;stroke-miterlimit:1.5;"><g id="Bicycle"><ellipse id="shadow" cx="442" cy="411.5" rx="442" ry="42.5" style="fill:#484848;"/><g id="wheel"><ellipse cx="201" cy="276" rx="139" ry="138" style="fill:none;stroke:#000;stroke-width:27.08px;"/><ellipse cx="201" cy="276" rx="113" ry="111" style="fill:none;stroke:#fff;stroke-width:27.08px;"/><ellipse cx="201" cy="276" rx="100" ry="98" style="fill:none;"/></g><g id="wheel1" serif:id="wheel"><ellipse cx="670" cy="276" rx="139" ry="138" style="fill:none;stroke:#000;stroke-width:27.08px;"/><ellipse cx="670" cy="276" rx="113" ry="111" style="fill:none;stroke:#fff;stroke-width:27.08px;"/><ellipse cx="670" cy="276" rx="100" ry="98" style="fill:none;"/></g><g id="seat"><path d="M338.572,39.812c2.083,-0.708 3.2,-2.974 2.492,-5.057l-3.754,-11.05c-0.708,-2.083 -2.974,-3.2 -5.057,-2.492l-7.548,2.564c-2.083,0.708 -3.2,2.974 -2.492,5.057l3.754,11.05c0.708,2.083 2.973,3.2 5.057,2.492l7.548,-2.564Z" style="fill:#6e6e6e;"/><path d="M367.602,9.429c-5.481,-0.183 -3.555,-14.149 -64.6,1.185c-6.484,1.629 -10.426,8.216 -8.797,14.701c1.628,6.484 8.215,10.426 14.7,8.797c61.045,-15.335 52.182,-23.829 58.697,-24.683Z"/></g><g id="handlebar"><path d="M591.395,14.936c0.299,-1.984 -1.07,-3.838 -3.055,-4.137l-1.707,-0.257c-1.985,-0.299 -3.839,1.069 -4.138,3.054l-3.765,24.998c-0.299,1.985 1.07,3.839 3.055,4.138l1.707,0.257c1.985,0.299 3.839,-1.07 4.138,-3.054l3.765,-24.999Z" style="fill:#090909;"/><path d="M596,4.5c0,-2.484 -2.016,-4.5 -4.5,-4.5l-81,0c-2.484,0 -4.5,2.016 -4.5,4.5l0,9c0,2.484 2.016,4.5 4.5,4.5l81,-0c2.484,-0 4.5,-2.016 4.5,-4.5l0,-9Z" style="fill:#494949;"/><path d="M596,4.5c-0,-2.484 -2.016,-4.5 -4.5,-4.5l-37,0c-2.484,0 -4.5,2.016 -4.5,4.5l-0,9c-0,2.484 2.016,4.5 4.5,4.5l37,0c2.484,0 4.5,-2.016 4.5,-4.5l-0,-9Z" style="fill:#d6d6d6;"/></g><g id="frame"><path d="M336.379,51.732c-2.969,0.02 -5.363,2.447 -5.343,5.416l0.073,10.759c0.02,2.969 2.446,5.363 5.415,5.343l257.199,-1.732c2.969,-0.02 5.363,-2.447 5.343,-5.416l-0.072,-10.759c-0.02,-2.969 -2.447,-5.363 -5.416,-5.343l-257.199,1.732Z"/><path d="M343.021,37.095c-0.872,-2.349 -3.487,-3.548 -5.836,-2.676l-8.513,3.162c-2.349,0.872 -3.548,3.487 -2.675,5.836l97.422,262.327c0.873,2.349 3.488,3.548 5.837,2.675l8.512,-3.161c2.349,-0.872 3.548,-3.488 2.676,-5.837l-97.423,-262.326Z"/><path d="M610.335,104.46c1.665,-1.873 1.496,-4.745 -0.377,-6.41l-6.786,-6.033c-1.873,-1.665 -4.745,-1.497 -6.41,0.376l-173.561,195.214c-1.665,1.873 -1.496,4.745 0.376,6.41l6.787,6.033c1.872,1.665 4.744,1.496 6.409,-0.376l173.562,-195.214Z"/><path d="M430.657,304.902c2.49,0.277 4.737,-1.521 5.013,-4.011l1.002,-9.025c0.277,-2.49 -1.521,-4.737 -4.011,-5.013l-231.149,-25.664c-2.49,-0.277 -4.736,1.521 -5.013,4.011l-1.002,9.025c-0.277,2.491 1.521,4.737 4.011,5.014l231.149,25.663Z"/><path d="M348.072,57.552c1.341,-2.117 0.711,-4.924 -1.406,-6.265l-7.672,-4.858c-2.117,-1.341 -4.924,-0.71 -6.264,1.407l-137.632,217.328c-1.341,2.117 -0.711,4.924 1.406,6.265l7.672,4.858c2.117,1.341 4.924,0.711 6.265,-1.406l137.631,-217.329Z"/><path d="M592.565,38.138c-0.964,-2.517 -3.79,-3.778 -6.307,-2.814l-9.12,3.493c-2.517,0.964 -3.778,3.79 -2.814,6.307l87.588,228.693c0.964,2.517 3.79,3.778 6.307,2.814l9.121,-3.493c2.517,-0.964 3.777,-3.79 2.813,-6.307l-87.588,-228.693Z"/><ellipse cx="199" cy="272.5" rx="17" ry="16.5"/><g id="pedal"><ellipse cx="441" cy="297" rx="22" ry="20"/><path d="M446.307,295.983c-0.362,-1.411 -1.802,-2.262 -3.212,-1.9l-5.112,1.313c-1.411,0.363 -2.262,1.802 -1.9,3.213l8.447,32.888c0.363,1.411 1.802,2.262 3.213,1.899l5.112,-1.313c1.41,-0.362 2.261,-1.801 1.899,-3.212l-8.447,-32.888Z" style="fill:#acacac;"/><path d="M457,327.5c0,-1.38 -1.12,-2.5 -2.5,-2.5l-25,0c-1.38,0 -2.5,1.12 -2.5,2.5l0,5c0,1.38 1.12,2.5 2.5,2.5l25,0c1.38,0 2.5,-1.12 2.5,-2.5l0,-5Z"/></g></g></g></svg>