<?xml version="1.0" encoding="UTF-8" standalone="no"?><!DOCTYPE svg PUBLIC "-//W3C//DTD SVG 1.1//EN" "http://www.w3.org/Graphics/SVG/1.1/DTD/svg11.dtd"><svg width="100%" height="100%" viewBox="0 0 1475 779" version="1.1" xmlns="http://www.w3.org/2000/svg" xmlns:xlink="http://www.w3.org/1999/xlink" xml:space="preserve" xmlns:serif="http://www.serif.com/" style="fill-rule:evenodd;clip-rule:evenodd;stroke-linecap:round;stroke-linejoin:round;stroke-miterlimit:1.5;"><g id="computer-and-desk" serif:id="computer and desk"><rect id="desk" x="0" y="730.834" width="1475" height="48.077" style="fill:#ffebc4;"/><g id="desktop-svg" serif:id="desktop svg"><g id="computer"><g id="mouse"><g><path d="M1430.36,711.761c0,-3.814 -3.096,-6.91 -6.91,-6.91l-42.267,-0c-3.814,-0 -6.91,3.096 -6.91,6.91l-0,13.822c-0,3.814 3.096,6.91 6.91,6.91l42.267,0c3.814,0 6.91,-3.096 6.91,-6.91l0,-13.822Z" style="fill:#a8a8a8;"/></g><path d="M1405.31,706.212c0,-0.751 -0.61,-1.361 -1.361,-1.361l-2.723,-0c-0.751,-0 -1.361,0.61 -1.361,1.361l0,6.314c0,0.752 0.61,1.362 1.361,1.362l2.723,-0c0.751,-0 1.361,-0.61 1.361,-1.362l0,-6.314Z"/></g><rect id="stand" x="678.71" y="425.571" width="114.354" height="265.793" style="fill:#353535;"/><g id="keyboard"><rect x="373.223" y="690.832" width="749.833" height="43.59" style="fill:#dfdfdf;"/><rect x="374.856" y="679.137" width="39.207" height="11.695" style="fill:#b3b3b3;"/><rect x="421.142" y="679.137" width="39.207" height="11.695" style="fill:#b3b3b3;"/><rect x="466.884" y="679.137" width="39.207" height="11.695" style="fill:#b3b3b3;"/><rect x="513.714" y="679.137" width="143.214" height="11.695" style="fill:#b3b3b3;"/><rect x="667.275" y="679.137" width="40.841" height="11.695" style="fill:#b3b3b3;"/><rect x="715.194" y="679.137" width="40.841" height="11.695" style="fill:#b3b3b3;"/><rect x="859.498" y="679.137" width="40.841" height="11.695" style="fill:#b3b3b3;"/><rect x="918.308" y="679.137" width="28.316" height="11.695" style="fill:#b3b3b3;"/><rect x="950.98" y="679.137" width="28.316" height="11.695" style="fill:#b3b3b3;"/><rect x="983.653" y="679.137" width="28.316" height="11.695" style="fill:#b3b3b3;"/><rect x="1025.04" y="679.137" width="49.009" height="11.695" style="fill:#b3b3b3;"/><rect x="1079.49" y="679.137" width="21.237" height="11.695" style="fill:#b3b3b3;"/><rect x="1103.09" y="679.137" width="17.244" height="11.695" style="fill:#b3b3b3;"/><rect x="811.578" y="679.137" width="40.841" height="11.695" style="fill:#b3b3b3;"/><rect x="763.114" y="679.137" width="40.841" height="11.695" style="fill:#b3b3b3;"/></g><g><rect id="code" x="305.424" y="3.105" width="556.455" height="421.51" style="fill:#303841;"/><clipPath id="_clip1"><rect x="305.424" y="3.105" width="556.455" height="421.51"/></clipPath><g clip-path="url(#_clip1)"><rect x="305.113" y="3.147" width="556.679" height="21.277" style="fill:#1d2227;"/><path d="M590.816,25.897c0,-0.813 -0.66,-1.473 -1.472,-1.473l-2.946,0c-0.813,0 -1.473,0.66 -1.473,1.473l0,396.723c0,0.813 0.66,1.473 1.473,1.473l2.946,-0c0.812,-0 1.472,-0.66 1.472,-1.473l0,-396.723Z" style="fill:#646a6f;"/><path d="M861.792,25.897c0,-0.813 -0.66,-1.473 -1.473,-1.473l-2.945,0c-0.813,0 -1.473,0.66 -1.473,1.473l0,396.723c0,0.813 0.66,1.473 1.473,1.473l2.945,-0c0.813,-0 1.473,-0.66 1.473,-1.473l0,-396.723Z" style="fill:#646a6f;"/><rect x="305.113" y="23.274" width="57.73" height="401.394" style="fill:#1d2227;"/><g transform="matrix(0.501589,0,0,0.489655,-11127.7,-943.338)"><text x="22918px" y="2009px" style="font-family:'Rubik-Regular', 'Rubik';font-size:30.837px;fill:#798b95;">10</text><text x="22918px" y="2039.84px" style="font-family:'Rubik-Regular', 'Rubik';font-size:30.837px;fill:#798b95;">11</text><text x="22918px" y="2070.67px" style="font-family:'Rubik-Regular', 'Rubik';font-size:30.837px;fill:#798b95;">12</text><text x="22918px" y="2101.51px" style="font-family:'Rubik-Regular', 'Rubik';font-size:30.837px;fill:#798b95;">13</text><text x="22918px" y="2132.35px" style="font-family:'Rubik-Regular', 'Rubik';font-size:30.837px;fill:#798b95;">14</text><text x="22918px" y="2163.18px" style="font-family:'Rubik-Regular', 'Rubik';font-size:30.837px;fill:#798b95;">15</text><text x="22918px" y="2194.02px" style="font-family:'Rubik-Regular', 'Rubik';font-size:30.837px;fill:#798b95;">16</text><text x="22918px" y="2224.86px" style="font-family:'Rubik-Regular', 'Rubik';font-size:30.837px;fill:#798b95;">17</text><text x="22918px" y="2255.7px" style="font-family:'Rubik-Regular', 'Rubik';font-size:30.837px;fill:#798b95;">18</text><text x="22918px" y="2286.53px" style="font-family:'Rubik-Regular', 'Rubik';font-size:30.837px;fill:#798b95;">19</text><text x="22918px" y="2317.37px" style="font-family:'Rubik-Regular', 'Rubik';font-size:30.837px;fill:#798b95;">20</text><text x="22918px" y="2348.21px" style="font-family:'Rubik-Regular', 'Rubik';font-size:30.837px;fill:#798b95;">21</text><text x="22918px" y="2379.04px" style="font-family:'Rubik-Regular', 'Rubik';font-size:30.837px;fill:#798b95;">22</text><text x="22918px" y="2409.88px" style="font-family:'Rubik-Regular', 'Rubik';font-size:30.837px;fill:#798b95;">23</text><text x="22918px" y="2440.72px" style="font-family:'Rubik-Regular', 'Rubik';font-size:30.837px;fill:#798b95;">2<tspan x="22935.7px " y="2440.72px ">4</tspan></text><text x="22918px" y="2471.55px" style="font-family:'Rubik-Regular', 'Rubik';font-size:30.837px;fill:#798b95;">25</text><text x="22918px" y="2502.39px" style="font-family:'Rubik-Regular', 'Rubik';font-size:30.837px;fill:#798b95;">26</text><text x="22918px" y="2533.23px" style="font-family:'Rubik-Regular', 'Rubik';font-size:30.837px;fill:#798b95;">27</text><text x="22918px" y="2564.07px" style="font-family:'Rubik-Regular', 'Rubik';font-size:30.837px;fill:#798b95;">28</text><text x="22918px" y="2594.9px" style="font-family:'Rubik-Regular', 'Rubik';font-size:30.837px;fill:#798b95;">29</text><text x="22918px" y="2625.74px" style="font-family:'Rubik-Regular', 'Rubik';font-size:30.837px;fill:#798b95;">30</text><text x="22918px" y="2656.58px" style="font-family:'Rubik-Regular', 'Rubik';font-size:30.837px;fill:#798b95;">3<tspan x="22935.9px " y="2656.58px ">1</tspan></text><text x="22918px" y="2687.41px" style="font-family:'Rubik-Regular', 'Rubik';font-size:30.837px;fill:#798b95;">32</text><text x="22918px" y="2718.25px" style="font-family:'Rubik-Regular', 'Rubik';font-size:30.837px;fill:#798b95;">33</text><text x="22918px" y="2749.09px" style="font-family:'Rubik-Regular', 'Rubik';font-size:30.837px;fill:#798b95;">34</text><text x="22918px" y="2779.93px" style="font-family:'Rubik-Regular', 'Rubik';font-size:30.837px;fill:#798b95;">40</text></g><g transform="matrix(0.501589,0,0,0.489655,-10902,-943.338)"><text x="22918px" y="2009px" style="font-family:'Rubik-Regular', 'Rubik';font-size:30.837px;fill:#798b95;">21</text><text x="22918px" y="2039.84px" style="font-family:'Rubik-Regular', 'Rubik';font-size:30.837px;fill:#798b95;">22</text><text x="22918px" y="2070.67px" style="font-family:'Rubik-Regular', 'Rubik';font-size:30.837px;fill:#798b95;">23</text><text x="22918px" y="2101.51px" style="font-family:'Rubik-Regular', 'Rubik';font-size:30.837px;fill:#798b95;">25</text><text x="22918px" y="2132.35px" style="font-family:'Rubik-Regular', 'Rubik';font-size:30.837px;fill:#798b95;">26</text><text x="22918px" y="2163.18px" style="font-family:'Rubik-Regular', 'Rubik';font-size:30.837px;fill:#798b95;">27</text><text x="22918px" y="2194.02px" style="font-family:'Rubik-Regular', 'Rubik';font-size:30.837px;fill:#798b95;">28</text><text x="22918px" y="2224.86px" style="font-family:'Rubik-Regular', 'Rubik';font-size:30.837px;fill:#798b95;">29</text><text x="22918px" y="2255.7px" style="font-family:'Rubik-Regular', 'Rubik';font-size:30.837px;fill:#798b95;">30</text><text x="22918px" y="2286.53px" style="font-family:'Rubik-Regular', 'Rubik';font-size:30.837px;fill:#798b95;">3<tspan x="22935.9px " y="2286.53px ">1</tspan></text><text x="22918px" y="2317.37px" style="font-family:'Rubik-Regular', 'Rubik';font-size:30.837px;fill:#798b95;">32</text><text x="22918px" y="2348.21px" style="font-family:'Rubik-Regular', 'Rubik';font-size:30.837px;fill:#798b95;">33</text><text x="22918px" y="2379.04px" style="font-family:'Rubik-Regular', 'Rubik';font-size:30.837px;fill:#798b95;">34</text><text x="22918px" y="2409.88px" style="font-family:'Rubik-Regular', 'Rubik';font-size:30.837px;fill:#798b95;">35</text><text x="22918px" y="2440.72px" style="font-family:'Rubik-Regular', 'Rubik';font-size:30.837px;fill:#798b95;">36</text><text x="22918px" y="2471.55px" style="font-family:'Rubik-Regular', 'Rubik';font-size:30.837px;fill:#798b95;">37</text><text x="22918px" y="2502.39px" style="font-family:'Rubik-Regular', 'Rubik';font-size:30.837px;fill:#798b95;">38</text><text x="22918px" y="2533.23px" style="font-family:'Rubik-Regular', 'Rubik';font-size:30.837px;fill:#798b95;">39</text><text x="22918px" y="2564.07px" style="font-family:'Rubik-Regular', 'Rubik';font-size:30.837px;fill:#798b95;">40</text><text x="22918px" y="2594.9px" style="font-family:'Rubik-Regular', 'Rubik';font-size:30.837px;fill:#798b95;">4<tspan x="22936.4px " y="2594.9px ">1</tspan></text><text x="22918px" y="2625.74px" style="font-family:'Rubik-Regular', 'Rubik';font-size:30.837px;fill:#798b95;">42</text><text x="22918px" y="2656.58px" style="font-family:'Rubik-Regular', 'Rubik';font-size:30.837px;fill:#798b95;">43</text><text x="22918px" y="2687.41px" style="font-family:'Rubik-Regular', 'Rubik';font-size:30.837px;fill:#798b95;">44</text><text x="22918px" y="2718.25px" style="font-family:'Rubik-Regular', 'Rubik';font-size:30.837px;fill:#798b95;">45</text><text x="22918px" y="2749.09px" style="font-family:'Rubik-Regular', 'Rubik';font-size:30.837px;fill:#798b95;">46</text><text x="22918px" y="2779.93px" style="font-family:'Rubik-Regular', 'Rubik';font-size:30.837px;fill:#798b95;">4<tspan x="22936.5px " y="2779.93px ">7</tspan></text></g><rect x="792.87" y="12.348" width="12.371" height="1.15" style="fill:none;stroke:#e5e5e5;stroke-width:3.99px;"/><rect x="814.077" y="10.048" width="12.371" height="5.751" style="fill:none;stroke:#e5e5e5;stroke-width:3.99px;"/><g><path d="M844.789,17.253l-8.327,-8.931l-0,0l8.327,8.931l-0,-0Z" style="fill:none;stroke:#e5e5e5;stroke-width:3.99px;"/><path d="M844.708,8.322l-8.246,9.002l-0,-0l8.246,-9.002l0,0Z" style="fill:none;stroke:#e5e5e5;stroke-width:3.99px;"/></g></g><rect id="site" x="861.88" y="3.356" width="313.702" height="421.259" style="fill:#fff;"/><rect x="898.904" y="45.701" width="237.987" height="21.277" style="fill:#a7a7a7;"/><rect x="898.904" y="66.404" width="237.987" height="315.134" style="fill:#d5d5d5;"/><path d="M950.154,252.724c-0,-1.587 -1.289,-2.875 -2.876,-2.875l-33.128,-0c-1.587,-0 -2.875,1.288 -2.875,2.875l-0,5.751c-0,1.587 1.288,2.875 2.875,2.875l33.128,-0c1.587,-0 2.876,-1.288 2.876,-2.875l-0,-5.751Z" style="fill:none;stroke:#e5e5e5;stroke-width:3.99px;"/><path d="M1003.17,252.724c-0,-1.587 -1.289,-2.875 -2.876,-2.875l-33.128,-0c-1.587,-0 -2.875,1.288 -2.875,2.875l-0,5.751c-0,1.587 1.288,2.875 2.875,2.875l33.128,-0c1.587,-0 2.876,-1.288 2.876,-2.875l-0,-5.751Z" style="fill:none;stroke:#e5e5e5;stroke-width:3.99px;"/><path d="M1067.38,256.735c0,-6.34 -5.147,-11.487 -11.487,-11.487l-22.974,0c-6.34,0 -11.487,5.147 -11.487,11.487l0,98.364c0,6.34 5.147,11.487 11.487,11.487l22.974,0c6.34,0 11.487,-5.147 11.487,-11.487l0,-98.364Z" style="fill:none;stroke:#e5e5e5;stroke-width:3.99px;"/><path d="M1123.34,256.16c-0,-6.34 -5.147,-11.487 -11.487,-11.487l-22.974,0c-6.34,0 -11.487,5.147 -11.487,11.487l-0,98.364c-0,6.34 5.147,11.487 11.487,11.487l22.974,0c6.34,0 11.487,-5.147 11.487,-11.487l-0,-98.364Z" style="fill:none;stroke:#e5e5e5;stroke-width:3.99px;"/><ellipse cx="912.453" cy="57.49" rx="4.124" ry="3.738" style="fill:#ff586d;"/><ellipse cx="924.234" cy="57.49" rx="4.124" ry="3.738" style="fill:#fffeba;"/><ellipse cx="936.016" cy="57.49" rx="4.124" ry="3.738" style="fill:#94ff89;"/><rect x="909.507" y="113.559" width="99.554" height="9.201" style="fill:#bfbfbf;"/><rect x="1019.08" y="113.559" width="104.856" height="9.201" style="fill:#bfbfbf;"/><rect x="909.507" y="130.236" width="100.732" height="52.331" style="fill:#bfbfbf;"/><rect x="908.918" y="187.742" width="101.91" height="48.88" style="fill:#bfbfbf;"/><rect x="1019.67" y="130.236" width="104.267" height="106.387" style="fill:#bfbfbf;"/></g><rect id="screen" x="304.391" y="1.997" width="871.455" height="423.603" style="fill:none;stroke:#000;stroke-width:3.99px;"/></g><g id="timer"><path id="shape" d="M272.382,654.271c-0,-13.739 -11.155,-24.893 -24.894,-24.893l-49.787,-0c-13.739,-0 -24.893,11.154 -24.893,24.893l-0,50.504c-0,13.739 11.154,24.894 24.893,24.894l49.787,-0c13.739,-0 24.894,-11.155 24.894,-24.894l-0,-50.504Z" style="fill:#fff;stroke:#81f2ff;stroke-width:8.14px;"/><g id="numbers"><g><ellipse cx="222.99" cy="681.066" rx="5.927" ry="5.4"/><path d="M222.99,662.551l1.976,14.658l-3.952,-0l1.976,-14.658Z"/></g><g transform="matrix(1,0,0,0.976208,0,-156.451)"><text x="252.594px" y="831.249px" style="font-family:'Karla-Regular', 'Karla';font-size:12.644px;">50</text></g><g transform="matrix(1,0,0,0.976208,0,-155.827)"><text x="253.877px" y="857.454px" style="font-family:'Karla-Regular', 'Karla';font-size:12.644px;">45</text></g><g transform="matrix(1,0,0,0.976208,0,-154.781)"><text x="215.615px" y="901.453px" style="font-family:'Karla-Regular', 'Karla';font-size:12.644px;">30</text></g><g transform="matrix(1,0,0,0.976208,-9.09495e-13,-155.848)"><text x="176.93px" y="856.597px" style="font-family:'Karla-Regular', 'Karla';font-size:12.644px;">15</text></g><g transform="matrix(1,0,0,0.976208,0,-155.295)"><text x="176.74px" y="879.852px" style="font-family:'Karla-Regular', 'Karla';font-size:12.644px;">20</text></g><g transform="matrix(1,0,0,0.976208,0,-156.766)"><text x="192.533px" y="817.999px" style="font-family:'Karla-Regular', 'Karla';font-size:12.644px;">5</text></g><g transform="matrix(1,0,0,0.976208,0,-156.451)"><text x="177.72px" y="831.249px" style="font-family:'Karla-Regular', 'Karla';font-size:12.644px;">10</text></g><g transform="matrix(1,0,0,0.976208,9.09495e-13,-155.331)"><text x="253.877px" y="878.309px" style="font-family:'Karla-Regular', 'Karla';font-size:12.644px;">40</text></g><g transform="matrix(1,0,0,0.976208,9.09495e-13,-154.817)"><text x="243.275px" y="899.91px" style="font-family:'Karla-Regular', 'Karla';font-size:12.644px;">35</text></g><g transform="matrix(1,0,0,0.976208,-9.09495e-13,-146.362)"><text x="239.949px" y="807.341px" style="font-family:'Karla-Regular', 'Karla';font-size:12.644px;">55</text></g><g transform="matrix(1,0,0,0.976208,0,-144.413)"><text x="188.594px" y="889.252px" style="font-family:'Karla-Regular', 'Karla';font-size:12.644px;">25</text></g><g transform="matrix(1,0,0,0.976208,0,-250.807)"><text x="218.789px" y="913.68px" style="font-family:'Karla-Regular', 'Karla';font-size:12.644px;">0</text></g></g></g></g></g></svg>