<?xml version="1.0" encoding="UTF-8" standalone="no"?>
<!DOCTYPE svg PUBLIC "-//W3C//DTD SVG 1.1//EN" "http://www.w3.org/Graphics/SVG/1.1/DTD/svg11.dtd">
<svg width="100%" height="100%" viewBox="0 0 1272 918" version="1.1" xmlns="http://www.w3.org/2000/svg" xmlns:xlink="http://www.w3.org/1999/xlink" xml:space="preserve" xmlns:serif="http://www.serif.com/" style="fill-rule:evenodd;clip-rule:evenodd;stroke-linecap:round;stroke-linejoin:round;stroke-miterlimit:1.5;">
    <g transform="matrix(1,0,0,1,-1224.92,-1400.92)">
        <g transform="matrix(0.260414,0,0,0.221596,1520.12,865.938)">
            <g id="desktop" transform="matrix(5.20356,0,0,6.11508,-1619.93,-21492.5)">
                <g id="background" transform="matrix(1.45186,0,0,0.844612,-465.419,607.724)">
                    <path d="M1030,3958.88C1030,3932.45 1017.52,3911 1002.15,3911L413.854,3911C398.481,3911 386,3932.45 386,3958.88L386,4661.12C386,4687.55 398.481,4709 413.854,4709L1002.15,4709C1017.52,4709 1030,4687.55 1030,4661.12L1030,3958.88Z" style="fill:url(#_Linear1);stroke:rgb(80,80,80);stroke-width:2.59px;"/>
                </g>
                <g id="browser-buttons">
                    <g id="button-1" transform="matrix(1,0,0,1,-276,-2)">
                        <ellipse cx="419.5" cy="3936" rx="9.5" ry="9" style="fill:white;"/>
                    </g>
                    <g id="button-2" transform="matrix(1,0,0,1,-254,-2)">
                        <ellipse cx="419.5" cy="3936" rx="9.5" ry="9" style="fill:white;"/>
                    </g>
                    <g id="button-3" transform="matrix(1,0,0,1,-232,-2)">
                        <ellipse cx="419.5" cy="3936" rx="9.5" ry="9" style="fill:white;"/>
                    </g>
                </g>
                <g id="php-form" transform="matrix(0.230696,0,0,0.224419,228.855,3213.95)">
                    <g transform="matrix(3.84004,0,0,4.51271,-5837.32,-3907.72)">
                        <rect x="1878" y="1673" width="454" height="470" style="fill:none;stroke:black;stroke-width:4.7px;"/>
                    </g>
                    <g id="input-field-two" transform="matrix(3.84004,0,0,4.51271,-5837.32,-3537.68)">
                        <rect x="1908" y="1707" width="394" height="51" style="fill:none;stroke:black;stroke-width:4.7px;"/>
                    </g>
                    <g id="input-field-three" transform="matrix(2.04672,0,0,4.51271,-2415.66,-3185.69)">
                        <rect x="1908" y="1707" width="394" height="51" style="fill:none;stroke:black;stroke-width:5.66px;"/>
                    </g>
                    <g id="cta-button" transform="matrix(3.87902,0,0,4.51271,-5911.7,-2490.73)">
                        <rect x="1908" y="1707" width="394" height="51" style="fill:rgb(1,96,162);"/>
                    </g>
                    <g id="input-field-one" transform="matrix(3.84004,0,0,4.51271,-5837.32,-3862.6)">
                        <rect x="1908" y="1707" width="394" height="51" style="fill:none;stroke:black;stroke-width:4.7px;"/>
                    </g>
                </g>
                <g id="form-link" transform="matrix(0.386626,0,0,0.240311,394.51,3322.21)">
                    <g transform="matrix(3.84004,0,0,4.51271,-5837.32,-3907.72)">
                        <path d="M1414,1578C1425,1585.18 1436,1585.5 1447,1578C1458.55,1573.17 1466.97,1573.04 1472,1578C1482.15,1584.52 1491.48,1584.52 1500,1578C1508.6,1571.36 1517.77,1569.96 1528,1578C1536,1584.12 1544,1584.93 1552,1578" style="fill:none;stroke:rgb(1,96,162);stroke-width:3.44px;"/>
                    </g>
                    <g transform="matrix(3.84004,0,0,4.51271,-5837.32,-3907.72)">
                        <path d="M1383,1577C1391.89,1568.66 1401.85,1566.77 1414,1578" style="fill:none;stroke:rgb(1,96,162);stroke-width:3.44px;"/>
                    </g>
                </g>
                <g id="form-link1" serif:id="form-link" transform="matrix(0.386626,0,0,0.240311,394.51,3499.18)">
                    <g transform="matrix(3.84004,0,0,4.51271,-5837.32,-3907.72)">
                        <path d="M1414,1578C1425,1585.18 1436,1585.5 1447,1578C1458.55,1573.17 1466.97,1573.04 1472,1578C1482.15,1584.52 1491.48,1584.52 1500,1578C1508.6,1571.36 1517.77,1569.96 1528,1578C1536,1584.12 1544,1584.93 1552,1578" style="fill:none;stroke:rgb(1,96,162);stroke-width:3.44px;"/>
                    </g>
                    <g transform="matrix(3.84004,0,0,4.51271,-5837.32,-3907.72)">
                        <path d="M1383,1577C1391.89,1568.66 1401.85,1566.77 1414,1578" style="fill:none;stroke:rgb(1,96,162);stroke-width:3.44px;"/>
                    </g>
                </g>
                <g id="form-link2" serif:id="form-link" transform="matrix(0.386626,0,0,0.240311,394.51,3410.69)">
                    <g transform="matrix(3.84004,0,0,4.51271,-5837.32,-3907.72)">
                        <path d="M1414,1578C1425,1585.18 1436,1585.5 1447,1578C1458.55,1573.17 1466.97,1573.04 1472,1578C1482.15,1584.52 1491.48,1584.52 1500,1578C1508.6,1571.36 1517.77,1569.96 1528,1578C1536,1584.12 1544,1584.93 1552,1578" style="fill:none;stroke:rgb(1,96,162);stroke-width:3.44px;"/>
                    </g>
                    <g transform="matrix(3.84004,0,0,4.51271,-5837.32,-3907.72)">
                        <path d="M1383,1577C1391.89,1568.66 1401.85,1566.77 1414,1578" style="fill:none;stroke:rgb(1,96,162);stroke-width:3.44px;"/>
                    </g>
                </g>
                <g id="form-link3" serif:id="form-link" transform="matrix(0.386626,0,0,0.240311,394.51,3587.66)">
                    <g transform="matrix(3.84004,0,0,4.51271,-5837.32,-3907.72)">
                        <path d="M1414,1578C1425,1585.18 1436,1585.5 1447,1578C1458.55,1573.17 1466.97,1573.04 1472,1578C1482.15,1584.52 1491.48,1584.52 1500,1578C1508.6,1571.36 1517.77,1569.96 1528,1578C1536,1584.12 1544,1584.93 1552,1578" style="fill:none;stroke:rgb(1,96,162);stroke-width:3.44px;"/>
                    </g>
                    <g transform="matrix(3.84004,0,0,4.51271,-5837.32,-3907.72)">
                        <path d="M1383,1577C1391.89,1568.66 1401.85,1566.77 1414,1578" style="fill:none;stroke:rgb(1,96,162);stroke-width:3.44px;"/>
                    </g>
                </g>
                <g id="form-link4" serif:id="form-link" transform="matrix(0.386626,0,0,0.240311,394.51,3368.73)">
                    <g transform="matrix(3.84004,0,0,4.51271,-5837.32,-3907.72)">
                        <path d="M1414,1578C1425,1585.18 1436,1585.5 1447,1578C1458.55,1573.17 1466.97,1573.04 1472,1578C1482.15,1584.52 1491.48,1584.52 1500,1578C1508.6,1571.36 1517.77,1569.96 1528,1578C1536,1584.12 1544,1584.93 1552,1578" style="fill:none;stroke:rgb(1,96,162);stroke-width:3.44px;"/>
                    </g>
                    <g transform="matrix(3.84004,0,0,4.51271,-5837.32,-3907.72)">
                        <path d="M1383,1577C1391.89,1568.66 1401.85,1566.77 1414,1578" style="fill:none;stroke:rgb(1,96,162);stroke-width:3.44px;"/>
                    </g>
                </g>
                <g id="form-link5" serif:id="form-link" transform="matrix(0.386626,0,0,0.240311,394.51,3545.7)">
                    <g transform="matrix(3.84004,0,0,4.51271,-5837.32,-3907.72)">
                        <path d="M1414,1578C1425,1585.18 1436,1585.5 1447,1578C1458.55,1573.17 1466.97,1573.04 1472,1578C1482.15,1584.52 1491.48,1584.52 1500,1578C1508.6,1571.36 1517.77,1569.96 1528,1578C1536,1584.12 1544,1584.93 1552,1578" style="fill:none;stroke:rgb(1,96,162);stroke-width:3.44px;"/>
                    </g>
                    <g transform="matrix(3.84004,0,0,4.51271,-5837.32,-3907.72)">
                        <path d="M1383,1577C1391.89,1568.66 1401.85,1566.77 1414,1578" style="fill:none;stroke:rgb(1,96,162);stroke-width:3.44px;"/>
                    </g>
                </g>
                <g id="form-link6" serif:id="form-link" transform="matrix(0.386626,0,0,0.240311,394.51,3457.21)">
                    <g transform="matrix(3.84004,0,0,4.51271,-5837.32,-3907.72)">
                        <path d="M1414,1578C1425,1585.18 1436,1585.5 1447,1578C1458.55,1573.17 1466.97,1573.04 1472,1578C1482.15,1584.52 1491.48,1584.52 1500,1578C1508.6,1571.36 1517.77,1569.96 1528,1578C1536,1584.12 1544,1584.93 1552,1578" style="fill:none;stroke:rgb(1,96,162);stroke-width:3.44px;"/>
                    </g>
                    <g transform="matrix(3.84004,0,0,4.51271,-5837.32,-3907.72)">
                        <path d="M1383,1577C1391.89,1568.66 1401.85,1566.77 1414,1578" style="fill:none;stroke:rgb(1,96,162);stroke-width:3.44px;"/>
                    </g>
                </g>
                <g id="form-link7" serif:id="form-link" transform="matrix(0.386626,0,0,0.240311,394.51,3634.18)">
                    <g transform="matrix(3.84004,0,0,4.51271,-5837.32,-3907.72)">
                        <path d="M1414,1578C1425,1585.18 1436,1585.5 1447,1578C1458.55,1573.17 1466.97,1573.04 1472,1578C1482.15,1584.52 1491.48,1584.52 1500,1578C1508.6,1571.36 1517.77,1569.96 1528,1578C1536,1584.12 1544,1584.93 1552,1578" style="fill:none;stroke:rgb(1,96,162);stroke-width:3.44px;"/>
                    </g>
                    <g transform="matrix(3.84004,0,0,4.51271,-5837.32,-3907.72)">
                        <path d="M1383,1577C1391.89,1568.66 1401.85,1566.77 1414,1578" style="fill:none;stroke:rgb(1,96,162);stroke-width:3.44px;"/>
                    </g>
                </g>
                <g id="form-link8" serif:id="form-link" transform="matrix(0.386626,0,0,0.240311,394.51,3675.23)">
                    <g transform="matrix(3.84004,0,0,4.51271,-5837.32,-3907.72)">
                        <path d="M1414,1578C1425,1585.18 1436,1585.5 1447,1578C1458.55,1573.17 1466.97,1573.04 1472,1578C1482.15,1584.52 1491.48,1584.52 1500,1578C1508.6,1571.36 1517.77,1569.96 1528,1578C1536,1584.12 1544,1584.93 1552,1578" style="fill:none;stroke:rgb(1,96,162);stroke-width:3.44px;"/>
                    </g>
                    <g transform="matrix(3.84004,0,0,4.51271,-5837.32,-3907.72)">
                        <path d="M1383,1577C1391.89,1568.66 1401.85,1566.77 1414,1578" style="fill:none;stroke:rgb(1,96,162);stroke-width:3.44px;"/>
                    </g>
                </g>
            </g>
        </g>
    </g>
    <defs>
        <linearGradient id="_Linear1" x1="0" y1="0" x2="1" y2="0" gradientUnits="userSpaceOnUse" gradientTransform="matrix(1.22465e-16,-2,2,1.22465e-16,675,3961)"><stop offset="0" style="stop-color:white;stop-opacity:1"/><stop offset="1" style="stop-color:rgb(150,150,150);stop-opacity:1"/></linearGradient>
    </defs>
</svg>
