<?xml version="1.0" encoding="UTF-8" standalone="no"?>
<!DOCTYPE svg PUBLIC "-//W3C//DTD SVG 1.1//EN" "http://www.w3.org/Graphics/SVG/1.1/DTD/svg11.dtd">
<svg width="100%" height="100%" viewBox="0 0 1489 679" version="1.1" xmlns="http://www.w3.org/2000/svg" xmlns:xlink="http://www.w3.org/1999/xlink" xml:space="preserve" xmlns:serif="http://www.serif.com/" style="fill-rule:evenodd;clip-rule:evenodd;stroke-linecap:round;stroke-linejoin:round;stroke-miterlimit:1.5;">
    <g transform="matrix(1,0,0,1,-92.9167,-3908.92)">
        <g>
            <g transform="matrix(1.45186,0,0,0.844612,-465.419,607.724)">
                <path d="M1030,3958.88C1030,3932.45 1017.52,3911 1002.15,3911L413.854,3911C398.481,3911 386,3932.45 386,3958.88L386,4661.12C386,4687.55 398.481,4709 413.854,4709L1002.15,4709C1017.52,4709 1030,4687.55 1030,4661.12L1030,3958.88Z" style="fill:url(#_Linear1);stroke:rgb(80,80,80);stroke-width:3.51px;"/>
            </g>
            <g transform="matrix(1.51458,0,0,1.43373,-496.007,-1778.92)">
                <rect x="412" y="4023" width="583" height="83" style="fill:rgb(4,232,36);"/>
            </g>
            <g transform="matrix(3.06162e-16,-1,1,3.06162e-16,-4029,4733.5)">
                <rect x="429" y="4200" width="144" height="145" style="fill:rgb(255,1,1);"/>
            </g>
            <g transform="matrix(-1.83697e-16,1,-1,-1.83697e-16,4718.5,3936.5)">
                <rect x="429" y="4200" width="144" height="145" style="fill:rgb(252,243,0);"/>
            </g>
            <g transform="matrix(-1,-3.67394e-16,3.67394e-16,-1,951.5,8698)">
                <g transform="matrix(0.7,0,0,0.773585,130.3,1007.89)">
                    <ellipse cx="471" cy="4398.5" rx="30" ry="26.5"/>
                </g>
                <g transform="matrix(-0.7,0,0,0.773585,893.7,1120.89)">
                    <ellipse cx="471" cy="4398.5" rx="30" ry="26.5"/>
                </g>
                <path d="M585,4401.75C585,4396.92 581.079,4393 576.25,4393L501.75,4393C496.921,4393 493,4396.92 493,4401.75L493,4419.25C493,4424.08 496.921,4428 501.75,4428L576.25,4428C581.079,4428 585,4424.08 585,4419.25L585,4401.75Z"/>
                <g transform="matrix(-1,0,0,1,1024,113)">
                    <path d="M585,4401.75C585,4396.92 581.079,4393 576.25,4393L501.75,4393C496.921,4393 493,4396.92 493,4401.75L493,4419.25C493,4424.08 496.921,4428 501.75,4428L576.25,4428C581.079,4428 585,4424.08 585,4419.25L585,4401.75Z"/>
                </g>
                <path d="M588,4457.5C588,4451.7 583.295,4447 577.5,4447L449.5,4447C443.705,4447 439,4451.7 439,4457.5L439,4478.5C439,4484.3 443.705,4489 449.5,4489L577.5,4489C583.295,4489 588,4484.3 588,4478.5L588,4457.5Z"/>
            </g>
            <g transform="matrix(1,2.44929e-16,-2.44929e-16,1,-262,-25)">
                <g transform="matrix(0.7,0,0,0.773585,130.3,1007.89)">
                    <ellipse cx="471" cy="4398.5" rx="30" ry="26.5"/>
                </g>
                <g transform="matrix(-0.7,0,0,0.773585,893.7,1120.89)">
                    <ellipse cx="471" cy="4398.5" rx="30" ry="26.5"/>
                </g>
                <path d="M585,4401.75C585,4396.92 581.079,4393 576.25,4393L501.75,4393C496.921,4393 493,4396.92 493,4401.75L493,4419.25C493,4424.08 496.921,4428 501.75,4428L576.25,4428C581.079,4428 585,4424.08 585,4419.25L585,4401.75Z"/>
                <g transform="matrix(-1,0,0,1,1024,113)">
                    <path d="M585,4401.75C585,4396.92 581.079,4393 576.25,4393L501.75,4393C496.921,4393 493,4396.92 493,4401.75L493,4419.25C493,4424.08 496.921,4428 501.75,4428L576.25,4428C581.079,4428 585,4424.08 585,4419.25L585,4401.75Z"/>
                </g>
                <path d="M588,4457.5C588,4451.7 583.295,4447 577.5,4447L449.5,4447C443.705,4447 439,4451.7 439,4457.5L439,4478.5C439,4484.3 443.705,4489 449.5,4489L577.5,4489C583.295,4489 588,4484.3 588,4478.5L588,4457.5Z"/>
            </g>
            <g transform="matrix(1,0,0,1,-276,-2)">
                <ellipse cx="419.5" cy="3936" rx="9.5" ry="9" style="fill:white;"/>
            </g>
            <g transform="matrix(1,0,0,1,-254,-2)">
                <ellipse cx="419.5" cy="3936" rx="9.5" ry="9" style="fill:white;"/>
            </g>
            <g transform="matrix(1,0,0,1,-232,-2)">
                <ellipse cx="419.5" cy="3936" rx="9.5" ry="9" style="fill:white;"/>
            </g>
            <ellipse cx="785" cy="4334" rx="183" ry="179" style="fill:rgb(36,159,255);"/>
        </g>
        <g>
            <g transform="matrix(0.613354,0,0,0.562657,811.245,1935.45)">
                <path d="M1030,3953.12C1030,3929.87 1012.69,3911 991.36,3911L424.64,3911C403.314,3911 386,3929.87 386,3953.12L386,4666.88C386,4690.13 403.314,4709 424.64,4709L991.36,4709C1012.69,4709 1030,4690.13 1030,4666.88L1030,3953.12Z" style="fill:url(#_Linear2);stroke:rgb(81,81,81);stroke-width:7.22px;"/>
            </g>
            <g transform="matrix(0.595197,0,0,0.927387,825.779,450.122)">
                <rect x="412" y="4023" width="583" height="83" style="fill:rgb(4,232,36);"/>
            </g>
            <g transform="matrix(2.99554e-16,-0.69589,0.978417,2.13055e-16,-3033.35,4692.75)">
                <rect x="429" y="4200" width="144" height="145" style="fill:rgb(255,1,1);"/>
            </g>
            <g transform="matrix(-1.79732e-16,0.69589,-0.978417,-1.27833e-16,5523.22,4156.46)">
                <rect x="429" y="4200" width="144" height="145" style="fill:rgb(252,243,0);"/>
            </g>
            <g transform="matrix(-0.990971,-2.97555e-16,3.88298e-16,-0.902597,1845.69,8372.4)">
                <g transform="matrix(0.7,0,0,0.773585,130.3,1007.89)">
                    <ellipse cx="471" cy="4398.5" rx="30" ry="26.5"/>
                </g>
                <g transform="matrix(-0.7,0,0,0.773585,893.7,1120.89)">
                    <ellipse cx="471" cy="4398.5" rx="30" ry="26.5"/>
                </g>
                <path d="M585,4401.75C585,4396.92 581.429,4393 577.03,4393L500.97,4393C496.571,4393 493,4396.92 493,4401.75L493,4419.25C493,4424.08 496.571,4428 500.97,4428L577.03,4428C581.429,4428 585,4424.08 585,4419.25L585,4401.75Z"/>
                <g transform="matrix(-1,0,0,1,1024,113)">
                    <path d="M585,4401.75C585,4396.92 581.429,4393 577.03,4393L500.97,4393C496.571,4393 493,4396.92 493,4401.75L493,4419.25C493,4424.08 496.571,4428 500.97,4428L577.03,4428C581.429,4428 585,4424.08 585,4419.25L585,4401.75Z"/>
                </g>
                <path d="M588,4457.5C588,4451.7 583.715,4447 578.436,4447L448.564,4447C443.285,4447 439,4451.7 439,4457.5L439,4478.5C439,4484.3 443.285,4489 448.564,4489L578.436,4489C583.715,4489 588,4484.3 588,4478.5L588,4457.5Z"/>
            </g>
            <g transform="matrix(0.978417,2.1153e-16,-2.39643e-16,0.863636,649.475,651.636)">
                <g transform="matrix(0.7,0,0,0.773585,130.3,1007.89)">
                    <ellipse cx="471" cy="4398.5" rx="30" ry="26.5"/>
                </g>
                <g transform="matrix(-0.7,0,0,0.773585,893.7,1120.89)">
                    <ellipse cx="471" cy="4398.5" rx="30" ry="26.5"/>
                </g>
                <path d="M585,4401.75C585,4396.92 581.539,4393 577.276,4393L500.724,4393C496.461,4393 493,4396.92 493,4401.75L493,4419.25C493,4424.08 496.461,4428 500.724,4428L577.276,4428C581.539,4428 585,4424.08 585,4419.25L585,4401.75Z"/>
                <g transform="matrix(-1,0,0,1,1024,113)">
                    <path d="M585,4401.75C585,4396.92 581.539,4393 577.276,4393L500.724,4393C496.461,4393 493,4396.92 493,4401.75L493,4419.25C493,4424.08 496.461,4428 500.724,4428L577.276,4428C581.539,4428 585,4424.08 585,4419.25L585,4401.75Z"/>
                </g>
                <path d="M588,4457.5C588,4451.7 583.847,4447 578.732,4447L448.268,4447C443.153,4447 439,4451.7 439,4457.5L439,4478.5C439,4484.3 443.153,4489 448.268,4489L578.732,4489C583.847,4489 588,4484.3 588,4478.5L588,4457.5Z"/>
            </g>
        </g>
        <g transform="matrix(1,0,0,0.929825,0,321.754)">
            <g transform="matrix(0.170807,0,0,0.357143,1403.07,2903.21)">
                <path d="M1030,3930.88C1030,3919.91 1012.69,3911 991.36,3911L424.64,3911C403.314,3911 386,3919.91 386,3930.88L386,4689.12C386,4700.09 403.314,4709 424.64,4709L991.36,4709C1012.69,4709 1030,4700.09 1030,4689.12L1030,3930.88Z" style="fill:url(#_Linear3);stroke:rgb(81,81,81);stroke-width:16.09px;"/>
            </g>
            <g transform="matrix(0.128645,0,0,0.264736,1433,3260.97)">
                <rect x="412" y="4023" width="583" height="83" style="fill:rgb(4,232,36);"/>
            </g>
            <g transform="matrix(0.33557,0,0,0.312531,1355.38,3044.37)">
                <rect x="429" y="4200" width="144" height="145" style="fill:rgb(255,1,1);"/>
            </g>
            <g transform="matrix(0.33557,0,0,0.312531,1355.38,3161.37)">
                <rect x="429" y="4200" width="144" height="145" style="fill:rgb(252,243,0);"/>
            </g>
            <g transform="matrix(0.33557,0,0,0.312531,1351.68,3044.37)">
                <g transform="matrix(0.7,0,0,0.773585,130.3,1007.89)">
                    <ellipse cx="471" cy="4398.5" rx="30" ry="26.5"/>
                </g>
                <g transform="matrix(-0.7,0,0,0.773585,893.7,1120.89)">
                    <ellipse cx="471" cy="4398.5" rx="30" ry="26.5"/>
                </g>
                <path d="M585,4401.75C585,4396.92 581.605,4393 577.423,4393L500.577,4393C496.395,4393 493,4396.92 493,4401.75L493,4419.25C493,4424.08 496.395,4428 500.577,4428L577.423,4428C581.605,4428 585,4424.08 585,4419.25L585,4401.75Z"/>
                <g transform="matrix(-1,0,0,1,1024,113)">
                    <path d="M585,4401.75C585,4396.92 581.605,4393 577.423,4393L500.577,4393C496.395,4393 493,4396.92 493,4401.75L493,4419.25C493,4424.08 496.395,4428 500.577,4428L577.423,4428C581.605,4428 585,4424.08 585,4419.25L585,4401.75Z"/>
                </g>
                <path d="M588,4457.5C588,4451.7 583.926,4447 578.907,4447L448.093,4447C443.074,4447 439,4451.7 439,4457.5L439,4478.5C439,4484.3 443.074,4489 448.093,4489L578.907,4489C583.926,4489 588,4484.3 588,4478.5L588,4457.5Z"/>
            </g>
            <g transform="matrix(0.33557,0,0,0.312531,1351.68,3161.37)">
                <g transform="matrix(0.7,0,0,0.773585,130.3,1007.89)">
                    <ellipse cx="471" cy="4398.5" rx="30" ry="26.5"/>
                </g>
                <g transform="matrix(-0.7,0,0,0.773585,893.7,1120.89)">
                    <ellipse cx="471" cy="4398.5" rx="30" ry="26.5"/>
                </g>
                <path d="M585,4401.75C585,4396.92 581.605,4393 577.423,4393L500.577,4393C496.395,4393 493,4396.92 493,4401.75L493,4419.25C493,4424.08 496.395,4428 500.577,4428L577.423,4428C581.605,4428 585,4424.08 585,4419.25L585,4401.75Z"/>
                <g transform="matrix(-1,0,0,1,1024,113)">
                    <path d="M585,4401.75C585,4396.92 581.605,4393 577.423,4393L500.577,4393C496.395,4393 493,4396.92 493,4401.75L493,4419.25C493,4424.08 496.395,4428 500.577,4428L577.423,4428C581.605,4428 585,4424.08 585,4419.25L585,4401.75Z"/>
                </g>
                <path d="M588,4457.5C588,4451.7 583.926,4447 578.907,4447L448.093,4447C443.074,4447 439,4451.7 439,4457.5L439,4478.5C439,4484.3 443.074,4489 448.093,4489L578.907,4489C583.926,4489 588,4484.3 588,4478.5L588,4457.5Z"/>
            </g>
        </g>
    </g>
    <defs>
        <linearGradient id="_Linear1" x1="0" y1="0" x2="1" y2="0" gradientUnits="userSpaceOnUse" gradientTransform="matrix(1.22465e-16,-2,2,1.22465e-16,675,3961)"><stop offset="0" style="stop-color:rgb(219,255,253);stop-opacity:1"/><stop offset="1" style="stop-color:rgb(150,150,150);stop-opacity:1"/></linearGradient>
        <linearGradient id="_Linear2" x1="0" y1="0" x2="1" y2="0" gradientUnits="userSpaceOnUse" gradientTransform="matrix(1.22465e-16,-2,2,1.22465e-16,675,3961)"><stop offset="0" style="stop-color:rgb(219,255,253);stop-opacity:1"/><stop offset="1" style="stop-color:rgb(150,150,150);stop-opacity:1"/></linearGradient>
        <linearGradient id="_Linear3" x1="0" y1="0" x2="1" y2="0" gradientUnits="userSpaceOnUse" gradientTransform="matrix(1.22465e-16,-2,2,1.22465e-16,675,3961)"><stop offset="0" style="stop-color:rgb(219,255,253);stop-opacity:1"/><stop offset="1" style="stop-color:rgb(150,150,150);stop-opacity:1"/></linearGradient>
    </defs>
</svg>
