<?xml version="1.0" encoding="UTF-8" standalone="no"?>
<!DOCTYPE svg PUBLIC "-//W3C//DTD SVG 1.1//EN" "http://www.w3.org/Graphics/SVG/1.1/DTD/svg11.dtd">
<svg width="100%" height="100%" viewBox="0 0 1272 918" version="1.1" xmlns="http://www.w3.org/2000/svg" xmlns:xlink="http://www.w3.org/1999/xlink" xml:space="preserve" xmlns:serif="http://www.serif.com/" style="fill-rule:evenodd;clip-rule:evenodd;stroke-linecap:round;stroke-linejoin:round;stroke-miterlimit:1.5;">
    <g transform="matrix(1,0,0,1,-3320.92,-1400.92)">
        <g transform="matrix(0.260414,0,0,0.221596,3616.12,865.938)">
            <g id="desktop" transform="matrix(5.20356,0,0,6.11508,-1619.93,-21492.5)">
                <g id="background" transform="matrix(1.45186,0,0,0.844612,-465.419,607.724)">
                    <path d="M1030,3958.88C1030,3932.45 1017.52,3911 1002.15,3911L413.854,3911C398.481,3911 386,3932.45 386,3958.88L386,4661.12C386,4687.55 398.481,4709 413.854,4709L1002.15,4709C1017.52,4709 1030,4687.55 1030,4661.12L1030,3958.88Z" style="fill:url(#_Linear1);stroke:rgb(80,80,80);stroke-width:2.59px;"/>
                </g>
                <g id="browser-buttons">
                    <g id="button-1" transform="matrix(1,0,0,1,-276,-2)">
                        <ellipse cx="419.5" cy="3936" rx="9.5" ry="9" style="fill:white;"/>
                    </g>
                    <g id="button-2" transform="matrix(1,0,0,1,-254,-2)">
                        <ellipse cx="419.5" cy="3936" rx="9.5" ry="9" style="fill:white;"/>
                    </g>
                    <g id="button-3" transform="matrix(1,0,0,1,-232,-2)">
                        <ellipse cx="419.5" cy="3936" rx="9.5" ry="9" style="fill:white;"/>
                    </g>
                </g>
                <g id="background-image" transform="matrix(0.831611,0,0,0.774508,-2713.63,2796.66)">
                    <rect x="3380" y="1535" width="1119" height="626" style="fill:rgb(108,117,125);"/>
                </g>
                <g id="cta-button" transform="matrix(0.737964,0,0,0.737964,-2155.05,2884.49)">
                    <path d="M3604,2002.5C3604,1994.5 3597.5,1988 3589.5,1988L3460.5,1988C3452.5,1988 3446,1994.5 3446,2002.5L3446,2031.5C3446,2039.5 3452.5,2046 3460.5,2046L3589.5,2046C3597.5,2046 3604,2039.5 3604,2031.5L3604,2002.5Z" style="fill:rgb(206,212,218);stroke:rgb(254,95,85);stroke-width:6.06px;"/>
                </g>
                <g id="cta-button1" serif:id="cta-button" transform="matrix(0.737964,0,0,0.737964,-2296.74,2884.49)">
                    <path d="M3604,2002.5C3604,1994.5 3597.5,1988 3589.5,1988L3460.5,1988C3452.5,1988 3446,1994.5 3446,2002.5L3446,2031.5C3446,2039.5 3452.5,2046 3460.5,2046L3589.5,2046C3597.5,2046 3604,2039.5 3604,2031.5L3604,2002.5Z" style="fill:rgb(254,95,85);stroke:rgb(206,212,218);stroke-width:6.06px;"/>
                </g>
                <g id="header-one-box" transform="matrix(1.84247,0,0,4.76602,-6122.03,-4144.61)">
                    <rect x="3452" y="1752" width="151" height="24" style="fill:rgb(233,236,239);"/>
                </g>
                <g id="header-two-box" transform="matrix(0.79661,0,0,0.707215,-2511.73,2940.58)">
                    <rect x="3452" y="1752" width="151" height="24" style="fill:rgb(233,236,239);"/>
                </g>
                <g id="nav-bar" transform="matrix(6.16762,0,0,1.35293,-21193.4,1582.72)">
                    <rect x="3452" y="1752" width="151" height="24" style="fill:rgb(206,212,218);"/>
                </g>
            </g>
        </g>
    </g>
    <defs>
        <linearGradient id="_Linear1" x1="0" y1="0" x2="1" y2="0" gradientUnits="userSpaceOnUse" gradientTransform="matrix(1.22465e-16,-2,2,1.22465e-16,675,3961)"><stop offset="0" style="stop-color:rgb(42,45,52);stop-opacity:1"/><stop offset="1" style="stop-color:rgb(150,150,150);stop-opacity:1"/></linearGradient>
    </defs>
</svg>
